# xmcd CD database file
#
# Track frame offsets:
#	150
#	13595
#	28305
#	51152
#	84277
#	100097
#	122555
#	151460
#	169477
#	211472
#	229192
#	250275
#	273355
#	293895
#
# Disc length: 4144 seconds
#
# Revision: 1
# Processed by: cddbd v1.4PL0 Copyright (c) Steve Scherf et al.
# Submitted via: CDex 1.40Release
#
DISCID=c2102e0e
DTITLE=Big Walter Smith &The Groove Merchants - Groovin' With
DYEAR=2001
DGENRE=Blues
TTITLE0=Turn Back The Hands of Time
TTITLE1=Natural Ball
TTITLE2=All Your Love
TTITLE3=JohnnyB. Goode/Knock on Wood
TTITLE4=Demm Blues Will Never Die
TTITLE5=She's Fine
TTITLE6=I Want To Know
TTITLE7=Don't You Lie To Me
TTITLE8=As The Years Go Passing By
TTITLE9=Breaking Up Somebody's Home
TTITLE10=Unchain My Heart
TTITLE11=I-94
TTITLE12=Honey Hush
TTITLE13=She's Mine
EXTD=YEAR: 2001 ID3G: 0
EXTT0=
EXTT1=
EXTT2=
EXTT3=
EXTT4=
EXTT5=
EXTT6=
EXTT7=
EXTT8=
EXTT9=
EXTT10=
EXTT11=
EXTT12=
EXTT13=
PLAYORDER=
